<svg xmlns="http://www.w3.org/2000/svg" width="132" height="56" fill="none" xmlns:v="https://vecta.io/nano"><path d="M29.95 48.763h5.539l-7.986-10.741 7.986-10.741H29.95l-7.986 10.741 7.986 10.741z" fill="#292b33"/><path d="M19.518 27.282h-5.539l7.986 10.741-7.986 10.741h5.539l7.986-10.741-7.986-10.741z" fill="#0071f2"/><path d="M12.238 8.126c-.262-.3-.568-.586-.931-.855a6.97 6.97 0 0 0-1.904-.987 6.74 6.74 0 0 0-2.195-.363c-1.376 0-2.607.344-3.692 1.031S1.574 8.578.945 9.768 0 12.318 0 13.847s.319 2.888.959 4.078 1.507 2.129 2.602 2.816 2.34 1.031 3.736 1.031a6.18 6.18 0 0 0 2.049-.349 6.46 6.46 0 0 0 1.773-.929 5.54 5.54 0 0 0 1.119-1.108v2.095h2.994V0h-2.994v8.126zm-.48 8.464c-.397.803-.945 1.437-1.643 1.901s-1.502.697-2.412.697-1.715-.232-2.413-.697-1.246-1.098-1.643-1.901-.596-1.717-.596-2.743.199-1.94.596-2.743.945-1.437 1.643-1.902 1.501-.697 2.413-.697 1.715.232 2.412.697a4.79 4.79 0 0 1 1.643 1.902c.398.803.596 1.718.596 2.743s-.199 1.94-.596 2.743zm16.071 2.075a5.78 5.78 0 0 1-2.108.378c-1.066 0-2.006-.213-2.819-.639s-1.444-1.031-1.89-1.814c-.337-.592-.546-1.265-.628-2.018h11.675l.029-1.277c.019-1.064-.14-2.047-.48-2.947a6.81 6.81 0 0 0-1.453-2.337 6.92 6.92 0 0 0-2.224-1.553c-.853-.378-1.773-.566-2.762-.566-1.124 0-2.166.199-3.125.595a7.1 7.1 0 0 0-2.471 1.684c-.688.726-1.226 1.582-1.613 2.569s-.581 2.081-.581 3.28c0 1.51.344 2.845 1.032 4.006a7.39 7.39 0 0 0 2.849 2.743c1.211.668 2.602 1.002 4.172 1.002a8.33 8.33 0 0 0 2.195-.305 10.58 10.58 0 0 0 2.122-.827c.669-.348 1.236-.755 1.701-1.219l-1.511-2.119c-.756.658-1.459 1.113-2.108 1.364zm-5.305-9.42c.717-.397 1.599-.595 2.645-.595a3.94 3.94 0 0 1 1.832.435c.563.29 1.027.687 1.395 1.19a3.36 3.36 0 0 1 .639 1.713v.203h-8.534c.092-.44.221-.844.395-1.205.368-.764.91-1.345 1.628-1.742h0zm22.927-2.641c-.775-.454-1.744-.682-2.907-.682a5.63 5.63 0 0 0-2.384.537c-.775.358-1.444.823-2.006 1.394-.239.243-.438.498-.611.76V6.241h-2.994v15.241h2.994V12.25c0-.503.102-.972.305-1.408a3.62 3.62 0 0 1 .843-1.147c.359-.33.78-.585 1.265-.769a4.47 4.47 0 0 1 1.599-.276c.716-.039 1.317.073 1.802.334s.843.678 1.076 1.248.349 1.292.349 2.163v9.086h2.994v-9.289c0-1.413-.194-2.584-.581-3.513s-.97-1.621-1.744-2.076h0zm7.097 14.878h2.994V9.144h3.547V6.241h-3.547v-3.89h-2.994v3.89h-3.169v2.903h3.169v12.337zm16.317-.059a7.4 7.4 0 0 0 1.832-.929c.552-.387 1.007-.827 1.366-1.321l.015-.022v2.33h3.023V6.241h-3.023v2.327a5.59 5.59 0 0 0-1.148-1.325 5.5 5.5 0 0 0-1.73-.972c-.659-.232-1.386-.349-2.18-.349-1.337 0-2.544.339-3.619 1.016s-1.928 1.611-2.558 2.801-.945 2.55-.945 4.078c0 1.51.31 2.865.93 4.064s1.449 2.148 2.486 2.845a6.04 6.04 0 0 0 3.444 1.045 6.37 6.37 0 0 0 2.108-.349h0zm-5.32-4.92c-.398-.784-.596-1.679-.596-2.685 0-.987.199-1.867.596-2.642s.94-1.383 1.628-1.829 1.478-.668 2.369-.668c.911 0 1.715.223 2.413.668a4.63 4.63 0 0 1 1.643 1.829c.398.774.596 1.655.596 2.642 0 1.007-.199 1.902-.596 2.685a4.6 4.6 0 0 1-1.643 1.843c-.698.445-1.502.668-2.413.668-.891 0-1.681-.223-2.369-.668s-1.231-1.06-1.628-1.843zM81.152 0h-2.994v21.482h2.994V0zM40.633 36.586c.727-.455 1.555-.682 2.486-.682.504 0 1.027.106 1.57.319a6.45 6.45 0 0 1 1.541.871c.484.368.881.774 1.192 1.219l1.657-2.032c-.582-.948-1.429-1.698-2.544-2.249s-2.35-.828-3.706-.828c-1.415 0-2.679.349-3.794 1.045s-1.997 1.645-2.645 2.845-.974 2.545-.974 4.035.324 2.835.974 4.035a7.48 7.48 0 0 0 2.645 2.845c1.114.697 2.379 1.045 3.794 1.045a8.11 8.11 0 0 0 3.59-.842c1.153-.561 2.039-1.278 2.66-2.148l-1.657-2.032a7.4 7.4 0 0 1-1.308 1.277c-.465.348-.945.609-1.439.784a4.56 4.56 0 0 1-1.526.261 4.48 4.48 0 0 1-2.442-.697 5.22 5.22 0 0 1-1.773-1.873c-.446-.784-.669-1.669-.669-2.656s.213-1.877.64-2.671a4.89 4.89 0 0 1 1.73-1.872h0zm21.374-2.7c-.775-.454-1.744-.682-2.907-.682a5.63 5.63 0 0 0-2.384.537 6.76 6.76 0 0 0-2.006 1.394c-.239.243-.438.498-.611.76v-8.612h-2.994v21.481H54.1v-9.231a3.29 3.29 0 0 1 .305-1.408 3.63 3.63 0 0 1 .843-1.147 3.9 3.9 0 0 1 1.265-.77c.485-.185 1.017-.276 1.599-.276.717-.039 1.318.072 1.802.334s.843.678 1.076 1.248.349 1.292.349 2.163v9.086h2.994v-9.289c0-1.413-.194-2.584-.581-3.513s-.969-1.621-1.744-2.076h0zM78.48 35.85a5.6 5.6 0 0 0-1.148-1.325c-.494-.416-1.071-.74-1.73-.972s-1.386-.349-2.18-.349c-1.337 0-2.544.339-3.619 1.016s-1.928 1.611-2.558 2.801-.945 2.55-.945 4.078c0 1.51.31 2.865.93 4.064s1.449 2.148 2.486 2.845a6.04 6.04 0 0 0 3.445 1.045 6.37 6.37 0 0 0 2.108-.349 7.4 7.4 0 0 0 1.832-.929c.552-.387 1.007-.827 1.366-1.321l.015-.022v2.33h3.023v-15.24H78.48v2.327h0zM78 43.785c-.397.784-.945 1.399-1.643 1.843s-1.502.668-2.413.668c-.891 0-1.681-.223-2.369-.668s-1.231-1.059-1.628-1.843-.596-1.678-.596-2.685c0-.987.198-1.867.596-2.642a4.67 4.67 0 0 1 1.628-1.829c.688-.446 1.478-.668 2.369-.668.911 0 1.715.223 2.413.668A4.63 4.63 0 0 1 78 38.458c.398.774.596 1.655.596 2.642 0 1.007-.199 1.901-.596 2.685zm17.331-9.899c-.775-.454-1.744-.682-2.907-.682a5.63 5.63 0 0 0-2.384.537 6.76 6.76 0 0 0-2.006 1.394c-.239.243-.438.498-.611.76v-2.371H84.43v15.24h2.994v-9.231a3.29 3.29 0 0 1 .305-1.408 3.63 3.63 0 0 1 .843-1.147c.358-.329.78-.585 1.265-.769a4.47 4.47 0 0 1 1.599-.276c.717-.039 1.318.072 1.802.334s.843.678 1.076 1.248.349 1.292.349 2.163v9.086h2.994v-9.289c0-1.413-.194-2.584-.581-3.513s-.969-1.621-1.744-2.076h0zm16.895 1.712a5.01 5.01 0 0 0-.698-.71c-.368-.309-.784-.595-1.25-.856a6.49 6.49 0 0 0-1.511-.61 6.51 6.51 0 0 0-1.687-.218c-1.414 0-2.689.344-3.822 1.031a7.33 7.33 0 0 0-2.674 2.816c-.648 1.19-.974 2.55-.974 4.079s.329 2.888.988 4.078 1.555 2.129 2.689 2.816 2.427 1.031 3.881 1.031a6.03 6.03 0 0 0 2.442-.523c.794-.348 1.458-.798 1.991-1.35a3.97 3.97 0 0 0 .625-.829v1.83c0 1.006-.184 1.848-.552 2.526s-.911 1.19-1.628 1.538-1.609.522-2.675.522c-.562 0-1.133-.063-1.715-.189a9.22 9.22 0 0 1-1.657-.523 6.52 6.52 0 0 1-1.366-.769l-1.105 2.322c.659.542 1.526.982 2.602 1.321a10.73 10.73 0 0 0 3.241.508c1.221 0 2.316-.17 3.285-.508s1.792-.832 2.471-1.481 1.197-1.442 1.555-2.381.538-2.017.538-3.236v-14.31h-2.994v2.075h0zm-2.209 10.03c-.737.446-1.58.668-2.529.668-.93 0-1.759-.223-2.486-.668s-1.298-1.059-1.715-1.843-.625-1.669-.625-2.656.208-1.873.625-2.656.988-1.403 1.715-1.858 1.556-.682 2.486-.682c.949 0 1.787.223 2.514.668s1.298 1.06 1.715 1.844.625 1.679.625 2.685-.203 1.897-.61 2.671a4.59 4.59 0 0 1-1.715 1.829zm21.982-5.051c.019-1.064-.141-2.047-.48-2.947s-.824-1.679-1.453-2.337a6.93 6.93 0 0 0-2.224-1.553 6.74 6.74 0 0 0-2.762-.566c-1.124 0-2.166.199-3.125.595s-1.783.958-2.471 1.684-1.226 1.582-1.613 2.569-.581 2.081-.581 3.28c0 1.51.343 2.845 1.031 4.006s1.638 2.075 2.849 2.743 2.602 1.002 4.172 1.002a8.34 8.34 0 0 0 2.194-.305 10.61 10.61 0 0 0 2.122-.827 6.9 6.9 0 0 0 1.701-1.219l-1.511-2.119c-.756.658-1.459 1.113-2.108 1.364a5.78 5.78 0 0 1-2.108.378c-1.066 0-2.005-.213-2.819-.639a4.56 4.56 0 0 1-1.89-1.814c-.337-.592-.545-1.265-.628-2.018h11.675l.029-1.277zm-9.564-4.05c.717-.397 1.599-.595 2.645-.595a3.94 3.94 0 0 1 1.832.435 3.95 3.95 0 0 1 1.395 1.19 3.36 3.36 0 0 1 .639 1.713v.203h-8.534c.092-.44.221-.844.395-1.205.368-.764.91-1.345 1.628-1.742h0z" fill="#292b33"/></svg>